<svg width="107" height="48" viewBox="0 0 107 48" fill="none" xmlns="http://www.w3.org/2000/svg">
<rect y="1" width="45" height="45" fill="#FB7D36"/>
<path d="M11 26.6667L24.7091 10L21.8727 19.2593L37 16.6667L11 40L24.7091 21.1111L11 26.6667Z" fill="#D9D9D9" stroke="white"/>
<path d="M64.3395 8.45312C64.2732 7.83286 63.9938 7.34991 63.5014 7.00426C63.0137 6.65862 62.3793 6.4858 61.598 6.4858C61.0488 6.4858 60.5777 6.56866 60.1847 6.73438C59.7917 6.90009 59.491 7.125 59.2827 7.40909C59.0743 7.69318 58.9678 8.01752 58.9631 8.3821C58.9631 8.68513 59.0317 8.94792 59.169 9.17045C59.3111 9.39299 59.5028 9.58239 59.7443 9.73864C59.9858 9.89015 60.2533 10.018 60.5469 10.1222C60.8404 10.2263 61.1364 10.3139 61.4347 10.3849L62.7983 10.7259C63.3475 10.8537 63.8755 11.0265 64.3821 11.2443C64.8935 11.4621 65.3504 11.7367 65.7528 12.0682C66.16 12.3996 66.482 12.7997 66.7188 13.2685C66.9555 13.7372 67.0739 14.2865 67.0739 14.9162C67.0739 15.7685 66.8561 16.5189 66.4205 17.1676C65.9848 17.8116 65.3551 18.3158 64.5312 18.6804C63.7121 19.0402 62.7202 19.2202 61.5554 19.2202C60.4238 19.2202 59.4413 19.045 58.608 18.6946C57.7794 18.3442 57.1307 17.8329 56.6619 17.1605C56.1979 16.4882 55.947 15.669 55.9091 14.7031H58.5014C58.5393 15.2098 58.6955 15.6312 58.9702 15.9673C59.2448 16.3035 59.6023 16.5545 60.0426 16.7202C60.4877 16.8859 60.9848 16.9688 61.5341 16.9688C62.107 16.9688 62.6089 16.8835 63.0398 16.7131C63.4754 16.5379 63.8163 16.2964 64.0625 15.9886C64.3087 15.6761 64.4342 15.3116 64.4389 14.8949C64.4342 14.5161 64.3229 14.2036 64.1051 13.9574C63.8873 13.7064 63.5819 13.4981 63.1889 13.3324C62.8007 13.1619 62.3461 13.0104 61.8253 12.8778L60.1705 12.4517C58.9725 12.1439 58.0256 11.6776 57.3295 11.0526C56.6383 10.4228 56.2926 9.58712 56.2926 8.54545C56.2926 7.68845 56.5246 6.93797 56.9886 6.29403C57.4574 5.65009 58.0942 5.15057 58.8991 4.79545C59.7041 4.43561 60.6155 4.25568 61.6335 4.25568C62.6657 4.25568 63.5701 4.43561 64.3466 4.79545C65.1278 5.15057 65.741 5.64536 66.1861 6.27983C66.6312 6.90956 66.8608 7.634 66.875 8.45312H64.3395ZM71.8007 19L68.7183 8.09091H71.3391L73.2567 15.7614H73.3561L75.3163 8.09091H77.9087L79.8689 15.7188H79.9754L81.8646 8.09091H84.4925L81.403 19H78.7254L76.68 11.6278H76.5308L74.4854 19H71.8007ZM86.5276 19V8.09091H89.0986V19H86.5276ZM87.8202 6.54261C87.413 6.54261 87.0626 6.40767 86.7691 6.13778C86.4755 5.86316 86.3287 5.53409 86.3287 5.15057C86.3287 4.76231 86.4755 4.43324 86.7691 4.16335C87.0626 3.88873 87.413 3.75142 87.8202 3.75142C88.2321 3.75142 88.5825 3.88873 88.8713 4.16335C89.1649 4.43324 89.3117 4.76231 89.3117 5.15057C89.3117 5.53409 89.1649 5.86316 88.8713 6.13778C88.5825 6.40767 88.2321 6.54261 87.8202 6.54261ZM97.508 8.09091V10.0795H91.0591V8.09091H97.508ZM92.6714 19V7.06108C92.6714 6.32718 92.8229 5.71638 93.1259 5.22869C93.4337 4.741 93.8456 4.37642 94.3617 4.13494C94.8778 3.89347 95.4507 3.77273 96.0804 3.77273C96.5255 3.77273 96.9209 3.80824 97.2665 3.87926C97.6122 3.95028 97.8678 4.0142 98.0336 4.07102L97.5222 6.05966C97.4133 6.02651 97.276 5.99337 97.1103 5.96023C96.9446 5.92235 96.7599 5.90341 96.5563 5.90341C96.0781 5.90341 95.7395 6.01941 95.5407 6.25142C95.3465 6.47869 95.2495 6.8054 95.2495 7.23153V19H92.6714ZM105.209 8.09091V10.0795H98.9376V8.09091H105.209ZM100.486 5.47727H103.057V15.7188C103.057 16.0644 103.109 16.3295 103.213 16.5142C103.322 16.6941 103.464 16.8172 103.639 16.8835C103.815 16.9498 104.009 16.983 104.222 16.983C104.383 16.983 104.529 16.9711 104.662 16.9474C104.799 16.9238 104.904 16.9025 104.975 16.8835L105.408 18.8935C105.27 18.9408 105.074 18.9929 104.818 19.0497C104.567 19.1065 104.26 19.1397 103.895 19.1491C103.251 19.1681 102.671 19.071 102.155 18.858C101.639 18.6402 101.229 18.304 100.926 17.8494C100.628 17.3949 100.481 16.8267 100.486 16.1449V5.47727ZM61.3636 43H56.4347V28.4545H61.4631C62.9072 28.4545 64.1477 28.7457 65.1847 29.3281C66.2263 29.9058 67.0265 30.7367 67.5852 31.821C68.1439 32.9053 68.4233 34.2027 68.4233 35.7131C68.4233 37.2282 68.1416 38.5303 67.5781 39.6193C67.0194 40.7083 66.2121 41.544 65.1562 42.1264C64.1051 42.7088 62.8409 43 61.3636 43ZM59.0696 40.7202H61.2358C62.2491 40.7202 63.0942 40.5355 63.7713 40.1662C64.4484 39.7921 64.9574 39.2358 65.2983 38.4972C65.6392 37.7538 65.8097 36.8258 65.8097 35.7131C65.8097 34.6004 65.6392 33.6771 65.2983 32.9432C64.9574 32.2045 64.4531 31.6529 63.7855 31.2884C63.1226 30.919 62.2988 30.7344 61.3139 30.7344H59.0696V40.7202ZM71.1668 43V28.4545H80.6271V30.6634H73.8018V34.6122H80.137V36.821H73.8018V40.7912H80.6839V43H71.1668ZM83.5553 43V28.4545H89.0098C90.1273 28.4545 91.0648 28.6487 91.8223 29.0369C92.5846 29.4252 93.1599 29.9697 93.5482 30.6705C93.9412 31.3665 94.1377 32.1785 94.1377 33.1065C94.1377 34.0393 93.9388 34.849 93.5411 35.5355C93.1481 36.2173 92.5681 36.7453 91.801 37.1193C91.034 37.4886 90.0917 37.6733 88.9743 37.6733H85.0894V35.4858H88.6192C89.2726 35.4858 89.8077 35.3958 90.2243 35.2159C90.641 35.0312 90.9487 34.7637 91.1476 34.4134C91.3512 34.0582 91.453 33.6226 91.453 33.1065C91.453 32.5904 91.3512 32.1501 91.1476 31.7855C90.944 31.4162 90.6339 31.1368 90.2172 30.9474C89.8005 30.7533 89.2631 30.6562 88.605 30.6562H86.1902V43H83.5553ZM91.0695 36.4091L94.6703 43H91.73L88.1931 36.4091H91.0695Z" fill="#575757"/>
</svg>
